<mxfile host="app.diagrams.net" agent="Mozilla/5.0 (Windows NT 10.0; Win64; x64) AppleWebKit/537.36 (KHTML, like Gecko) Chrome/127.0.0.0 Safari/537.36 Edg/127.0.0.0" version="24.7.6">
  <diagram name="Page-1" id="Xu28YXMObV3EPltimlAV">
    <mxGraphModel dx="2236" dy="757" grid="1" gridSize="10" guides="1" tooltips="1" connect="1" arrows="1" fold="1" page="1" pageScale="1" pageWidth="850" pageHeight="1100" math="0" shadow="0">
      <root>
        <mxCell id="0" />
        <mxCell id="1" parent="0" />
        <mxCell id="bXhQEqrOA045pYAX1-pz-1" value="" style="rounded=0;whiteSpace=wrap;html=1;" parent="1" vertex="1">
          <mxGeometry x="40" y="200" width="860" height="620" as="geometry" />
        </mxCell>
        <mxCell id="uzim5C8OLmEuUQWsHm3U-2" value="" style="rounded=0;whiteSpace=wrap;html=1;fillColor=#eeeeee;strokeColor=none;" vertex="1" parent="1">
          <mxGeometry x="60" y="640" width="800" height="160" as="geometry" />
        </mxCell>
        <mxCell id="uzim5C8OLmEuUQWsHm3U-1" value="" style="rounded=0;whiteSpace=wrap;html=1;fillColor=#eeeeee;strokeColor=none;" vertex="1" parent="1">
          <mxGeometry x="430" y="440" width="430" height="200" as="geometry" />
        </mxCell>
        <mxCell id="bXhQEqrOA045pYAX1-pz-38" value="" style="rounded=0;whiteSpace=wrap;html=1;fillColor=#eeeeee;strokeColor=none;" parent="1" vertex="1">
          <mxGeometry x="60" y="245" width="370" height="395" as="geometry" />
        </mxCell>
        <mxCell id="bXhQEqrOA045pYAX1-pz-3" value="" style="rounded=0;whiteSpace=wrap;html=1;" parent="1" vertex="1">
          <mxGeometry x="440" y="260" width="410" height="140" as="geometry" />
        </mxCell>
        <mxCell id="bXhQEqrOA045pYAX1-pz-4" value="Capital 11 web services" style="rounded=0;whiteSpace=wrap;html=1;fillColor=#cce5ff;strokeColor=#36393d;" parent="1" vertex="1">
          <mxGeometry x="460" y="300" width="120" height="60" as="geometry" />
        </mxCell>
        <mxCell id="bXhQEqrOA045pYAX1-pz-5" value="Capital 11 database" style="shape=cylinder3;whiteSpace=wrap;html=1;boundedLbl=1;backgroundOutline=1;size=15;fillColor=#FFD966;" parent="1" vertex="1">
          <mxGeometry x="630" y="290" width="60" height="80" as="geometry" />
        </mxCell>
        <mxCell id="bXhQEqrOA045pYAX1-pz-44" style="edgeStyle=orthogonalEdgeStyle;rounded=0;orthogonalLoop=1;jettySize=auto;html=1;exitX=0.5;exitY=1;exitDx=0;exitDy=0;exitPerimeter=0;entryX=1;entryY=0.5;entryDx=0;entryDy=0;strokeWidth=2;strokeColor=#3399FF;" parent="1" source="bXhQEqrOA045pYAX1-pz-6" target="bXhQEqrOA045pYAX1-pz-21" edge="1">
          <mxGeometry relative="1" as="geometry" />
        </mxCell>
        <mxCell id="bXhQEqrOA045pYAX1-pz-6" value="Dataware house" style="shape=cylinder3;whiteSpace=wrap;html=1;boundedLbl=1;backgroundOutline=1;size=15;fillColor=#FFD966;" parent="1" vertex="1">
          <mxGeometry x="740" y="290" width="100" height="80" as="geometry" />
        </mxCell>
        <mxCell id="bXhQEqrOA045pYAX1-pz-9" value="" style="endArrow=classic;startArrow=classic;html=1;rounded=0;entryX=0;entryY=0.5;entryDx=0;entryDy=0;entryPerimeter=0;exitX=1;exitY=0.5;exitDx=0;exitDy=0;strokeWidth=2;strokeColor=#3399FF;fillColor=#cce5ff;" parent="1" source="bXhQEqrOA045pYAX1-pz-4" target="bXhQEqrOA045pYAX1-pz-5" edge="1">
          <mxGeometry width="50" height="50" relative="1" as="geometry">
            <mxPoint x="540" y="430" as="sourcePoint" />
            <mxPoint x="590" y="380" as="targetPoint" />
          </mxGeometry>
        </mxCell>
        <mxCell id="bXhQEqrOA045pYAX1-pz-10" value="" style="endArrow=classic;startArrow=classic;html=1;rounded=0;exitX=1;exitY=0.5;exitDx=0;exitDy=0;exitPerimeter=0;entryX=0;entryY=0.5;entryDx=0;entryDy=0;entryPerimeter=0;strokeColor=#3399FF;strokeWidth=2;" parent="1" source="bXhQEqrOA045pYAX1-pz-5" target="bXhQEqrOA045pYAX1-pz-6" edge="1">
          <mxGeometry width="50" height="50" relative="1" as="geometry">
            <mxPoint x="690" y="390" as="sourcePoint" />
            <mxPoint x="750" y="340" as="targetPoint" />
          </mxGeometry>
        </mxCell>
        <mxCell id="bXhQEqrOA045pYAX1-pz-12" value="" style="shape=image;verticalLabelPosition=bottom;labelBackgroundColor=default;verticalAlign=top;aspect=fixed;imageAspect=0;image=data:image/png,iVBORw0KGgoAAAANSUhEUgAAAG4AAAAkCAYAAABomA/xAAAAAXNSR0IArs4c6QAAAARnQU1BAACxjwv8YQUAAAAJcEhZcwAADsMAAA7DAcdvqGQAAAwGSURBVGhD7ZoLWFRlGsf/M9yvaoJyUxGvqeA1L0FrmmmZbJfNtdLK67bZ2rpqha2iZWZmYkqpZMpWitplzdBSvKdoKALijdRUMOWOwnAbhmF63++cgZlxYAd5mpWn+T3Peeac71xmzvd+3//9vx8oKisrdbDR7FDoCHnfRjNCKX/aaGb8YWZceXklCgqLUVJShpqaGjg6OsDd3RVerVvA2dlRvqr5oFCrq3SxX/wgHwIeHi4YPWoIWrZwl1vq54u43SivUIv9Lp0DMHxoP7GfdPws0k7/IvYZP9/WGDVioOgsPSWqMuw/mILcvJvi2NXFCc8/N0rs/3o9Dzt3/ST2GV+fe/Dnx8LkI4mMnzNx6Mgp+UiiV4+OCB0SLB9JaDTVSEu/iD37k5GSdgEFBbcocDrY2dmhbdtWGDTgXjw6cjC6dW0PhUIh33X3oygtLdf1HTJFPgQC/L2xYW0EAjv4yi31Ezp8OvKpI5jHx4Rh2bvTxf6yFXFYF7tD7DP+vl7i3ID+3eUWKTizI1Yj9dQFcezt1RKJ+1eL/cRjpzHppSVin7mP7tsUGykfAZev3MBbi2NxjAaInk5B/ngncir69+smt0jEf5+I1THb6E2BCc+ORMcOfjSA7KFWa3CABs52Ot/WuxU+WjHTone+W7BKjrueXYCNWxNQWloht9w5hUXFiFn/HY4nn5dbIDp87pwJ6B3SWW6BkMOEfcexdHkc+vTugvVr5uLZsSMwZFBPDOjXXczMiNcmICZ6Dhwc7GgQfYzMrFz57rsfq5kTlsWMC5ny0Z2hqa5G3JY9+G7nEWgpMIy7mzNe/tsTuH9wL9jb24k2hpXgy28OoF1AG7w6/Wkh10ql0kgO+fp+fbriX6+Ow5XMbPx4JFUEvDlgtcBVVlaJnHinVFdrsf9QCjZ9uRdardS5nBcnvzgGoylHGQaNuXDxGsnwRYx7ejjlyNZyq3k46D26ByIl9QLKyipw7vxVfBt/WJxTV2looCTi/ahNJO/5UhvJbNKJs1j03mc0Uz8Ssr17T5I4dydQusKuhCRSkxKoaH/vgWQsXvo5Zr0RjZUffy3ewxSrlgOHj6aLDmnsqGbjm5R8DsuiNqOIXo5xcnLElImPYeLzj4icZcr3u46JfG1qVsxhT0Ylcu5EjBv7EMmmPZJTMvBpbDyyfs3FrNej8cGHcUIxVGSort/Ix/y31yFifgyuUK51dXVGdm4h3l+xGTNfW4WrmTni9zLTpi+l69aKfXMMG/UqNpGCsNtdsHgDTpGJmrdwHdZtiCfFKKZnu+CnpDOYOWcllnywUThjPVYJnLubi/jkHLeTOlTf+ZZSUFiCD6O/RNa1uhz0yMMDxWxzd3M16wbT0i8hsL0PXCy0+l27tMPggT2pNHASrpNnGndqBSnFG7PH49M1b6B9u7b4nFQj9dQlIb/RUTOxiAzR2lVzsHjhNNHxqz/ZVtvB7LhZaeqjlGY3u16mgq7duDlBlCdRS2fQ9g+8s2AqPl8/Dy9MeBTf7UjEjh+OimsZqwQuLDQYTnIpcIJMRZKBsbAEDtgpg/KC6RTkBzca7fVxq7hUdLRhCdIY8vJv4eKla5jzz3GiXAjwb0OlSxHiSTbHPjWMypNQuMkDkuGgT5scjkOH0yiXZ8mtlsPyW0DG66Wpj8Pfz4vysTQYWQGeISVgU8U5+wYZPcYqgbt/UHCtZPEoXLX6azHCLMWctHLt2ZDZ4e/hoJmbjbsoH70yM8rslifXldyRTz0+FN27dRCmhjl89DRa3+OJoQ/0rm0zZPjQ/qIeNJwZlsLyOuqhgWhDpYkpPECfIUecQ5KcfkYawFYJHE//J8LDRD5geAZtp5HbGDgA+lHI3LypIlnaLmaWOZydHMTgMLcwxAF1JmNjuJWRvO07eJICLskcf19IryCjAGX8nAVv75b0Pi3NDghv6vT27drgzNnLckvjCAysv47sE9KJfqMaN25YccYxQ//UF8E9g8Q+u0LW7OvZkkuzhAB/L4SPDjWSvsRj6Tj4o3kLzzLJqyQajVZuqWNoWB8smj/FaJs6cQzJeV0+5Li0bXOPfCSRm1eIFp7utLnJLcbY2SlFTq2qkvJWY9F7AXPwezuQc66WHbXVAudCSX/Gy3+pzXU87fWy9L/gtcSF/56MhfMmU/FctzKiUpUjKnqrcGWm9O/bHWfI1rMBMIU7mGe/4cb5q1JdJ988o9i5GsKTl41Lfa6Y29nUWIK55zSUPoSRoTpWrzpWCxzTrUt7jCQ3aCh5ltCNHN8Dob2F1nMJ0MJgHTUnpwgfrf2vkDpDQof0EoPjWNJpuaV+uEbkdU8zqmoEu9Sbt1T1yjOf49/TOchfHPMAqY/iklLhWA1JS5eW/8zBy3yuLs5i+ZC57cls1des+xZLlm00u125mi1f2Xg8PFzxZPgD8KYc0RgM5bFvSFeMHjXYqFO4eE2kGtGQnj06SmucZOlzcovkVvOcz7iKEyfPN9jRTFhoiHCav1y+LrcYw0tml+hcn97S0huXKlU0A9Xq20sC/k6edYbs41qRCnBTeGAl7D0BT09XsSbL3PZL2Y1t33GE6pVdZje9Hb0TeKYNuq8HBtJ2p7i5OeO5cQ+jY6Cf3CJZf66fMrNy5BagVUsPTJ/2pJgFkYvWC4uur5kYNi3cocmpGXh32RfkFPsIE9UQLNOcO1et+Qb5VC7ojQ9/spRt+Gyn+H0jhg0Q7SHBQVTE51GwfzW6lvtwy1f7YGeiPM4kzev/swPF9D7sA/hanpW8krIr4SeMJNcZ1FF6b7NDjEcC32huaypcl0wlufNwrz8RNwTnHpbOF8ZLfwLScy4jk2ZXAiVvyYzwdbzo/Pqs8cjOLsSMWStEx/KKyqEjaWIhIJoC8GbkJ/Dz9cZ4Ggye9ZgOPR4ebphBhTebnojIGOzee5yk+Cx+oE5dtOQz+g1XMeXFMcJdMmMevV8MqveWbxL1XUrqz9h34CSWr9wivqtzpwBxnZ7JLzyGk3TN6/PWYvNXe/H1toPiLxvvR8WJMoMNlH5pr2Ft+J3gHxxOBWxT4PVJQ6PC8Jri8RPGxf1DD/bDkkUviRop/vujmPfWp5g7PwbLP9yC02TbJ1FnRcwZLyw+GxpTQ2KIkgYDy+87C6aRybLHshWbxZLW8pVbqTwpwYI3J2HE8AG1nevr44WI2RPEfuTb68V3r4uNF2unf5/2BAb0vxe+vnXrqFxqsAEL6dVJBHojDUSuVSc9P1r8RneDwa7QarU6ns6Wwn+7cqG6h7lG99Wu0pNx8PKSchfXWMWqMrHPtKF2fQ3HsASwlhfRdXrsqF7ilXyG3VVufp3jZAnxaWtszfkZnI9VBq6RO5YlknOpKbz0VFxSJuSR7+U/pPIiNY987mhWE5Y7tuS80MwS24HMSH3wTOIlPOo/cT+/H5cJpoU55yf+Xl5Ipu6mgeEgvpPLBhXd70gKxCZqZPhsxMbMFQsVnBfZbLG0s0J5uLvetohu+2ehu4CrmdlGgbOE/4tU2mg6tsDdBbC8tmrlcZscNkSTpLKmOB8118gMOLrALrAXFPRpwzo0KXCVW9+F5ug2KJzd4Bj+ChzDxspnbPzeNEkqqy8cB9Rl0BXn0czLkFttWIPbZpyuhgpYdQV0FaV0oIXC1ZO8ugNt9lDQZogmdQ80x74V5xwfHA/7bgPlMxI6bTU/ELpyFXSVZSSlzlC4eEDhZJPUplIbuJryYmgvpkCbdQ66wuuAVgP7+0ZT7gqBwoHqNntH+mzcf/zqqqvowVroSgqhSdtHz0+Gwq0llH6d6bnBUl6k59poPLWBqzoYh6qEDdCpCmkqqcUsU3bqC4fgB6HwCYTSJwhKT2+6Q15f03+aIk9gnmE6VQG0OVdQk5WB6vT90GXzX2/pvJMrFK184PTXuXDo0bQVlD8qRlKpObkb2supqMnNlANYCV0VbWqq+ln2qjWScySpY0NCt9O+M0W9UgRMR+fFdXS9joNPNlfMVtoUzu4kka4ASaUyoCvsg4dJM85Efm1YhllXyXlOV3RD5DmRn8puSYHgAHEgayg4HCBTlJQHecnHjuoRBwqoPmAUZEULLyhJJkE50xaspmM2cDbufmwrJ80UW+CaJcBv7kty9X9cO7gAAAAASUVORK5CYII=;" parent="1" vertex="1">
          <mxGeometry x="680" y="190" width="110" height="36" as="geometry" />
        </mxCell>
        <mxCell id="bXhQEqrOA045pYAX1-pz-13" value="" style="rounded=0;whiteSpace=wrap;html=1;fillColor=#e1d5e7;strokeColor=#9673a6;" parent="1" vertex="1">
          <mxGeometry x="240" y="260" width="170" height="140" as="geometry" />
        </mxCell>
        <mxCell id="bXhQEqrOA045pYAX1-pz-14" value="" style="rounded=0;whiteSpace=wrap;html=1;fillColor=#e1d5e7;strokeColor=#9673a6;" parent="1" vertex="1">
          <mxGeometry x="80" y="440" width="330" height="170" as="geometry" />
        </mxCell>
        <mxCell id="bXhQEqrOA045pYAX1-pz-15" value="Front-End&amp;nbsp;&lt;div&gt;React 18 / Nextjs 14&lt;/div&gt;" style="rounded=0;whiteSpace=wrap;html=1;fillColor=#ffe6cc;strokeColor=#d79b00;" parent="1" vertex="1">
          <mxGeometry x="265" y="320" width="120" height="60" as="geometry" />
        </mxCell>
        <mxCell id="bXhQEqrOA045pYAX1-pz-16" value="Front-End&amp;nbsp;&lt;div&gt;Vue 3 Javascript&lt;/div&gt;" style="rounded=0;whiteSpace=wrap;html=1;fillColor=#ffe6cc;strokeColor=#d79b00;" parent="1" vertex="1">
          <mxGeometry x="115" y="516" width="120" height="60" as="geometry" />
        </mxCell>
        <mxCell id="bXhQEqrOA045pYAX1-pz-17" value="Back-End&lt;div&gt;Java&lt;/div&gt;" style="rounded=0;whiteSpace=wrap;html=1;fillColor=#dae8fc;strokeColor=#6c8ebf;" parent="1" vertex="1">
          <mxGeometry x="265" y="516" width="120" height="60" as="geometry" />
        </mxCell>
        <mxCell id="bXhQEqrOA045pYAX1-pz-18" value="New Admin Portal" style="text;html=1;align=center;verticalAlign=middle;whiteSpace=wrap;rounded=0;" parent="1" vertex="1">
          <mxGeometry x="240" y="270" width="170" height="30" as="geometry" />
        </mxCell>
        <mxCell id="bXhQEqrOA045pYAX1-pz-19" value="Member &amp;amp; Advisor Portal" style="text;html=1;align=center;verticalAlign=middle;whiteSpace=wrap;rounded=0;" parent="1" vertex="1">
          <mxGeometry x="165" y="450" width="170" height="30" as="geometry" />
        </mxCell>
        <mxCell id="bXhQEqrOA045pYAX1-pz-20" value="Portal SQL Database" style="shape=cylinder3;whiteSpace=wrap;html=1;boundedLbl=1;backgroundOutline=1;size=15;fillColor=#FFD966;" parent="1" vertex="1">
          <mxGeometry x="450" y="487" width="60" height="80" as="geometry" />
        </mxCell>
        <mxCell id="bXhQEqrOA045pYAX1-pz-21" value="Jobs to load data to portal database" style="rounded=0;whiteSpace=wrap;html=1;fillColor=#FFD966;" parent="1" vertex="1">
          <mxGeometry x="560" y="462" width="120" height="60" as="geometry" />
        </mxCell>
        <mxCell id="bXhQEqrOA045pYAX1-pz-22" value="" style="rounded=0;whiteSpace=wrap;html=1;fillColor=#d5e8d4;strokeColor=#82b366;" parent="1" vertex="1">
          <mxGeometry x="80" y="650" width="770" height="130" as="geometry" />
        </mxCell>
        <mxCell id="bXhQEqrOA045pYAX1-pz-23" value="Infrastructure Components" style="text;html=1;align=center;verticalAlign=middle;whiteSpace=wrap;rounded=0;" parent="1" vertex="1">
          <mxGeometry x="340" y="660" width="170" height="30" as="geometry" />
        </mxCell>
        <mxCell id="bXhQEqrOA045pYAX1-pz-24" value="OKTA" style="rounded=0;whiteSpace=wrap;html=1;fillColor=#60a917;strokeColor=#2D7600;fontColor=#ffffff;" parent="1" vertex="1">
          <mxGeometry x="110" y="700" width="120" height="60" as="geometry" />
        </mxCell>
        <mxCell id="bXhQEqrOA045pYAX1-pz-25" value="Azure Key Vault" style="rounded=0;whiteSpace=wrap;html=1;fillColor=#60a917;strokeColor=#2D7600;fontColor=#ffffff;" parent="1" vertex="1">
          <mxGeometry x="260" y="700" width="120" height="60" as="geometry" />
        </mxCell>
        <mxCell id="bXhQEqrOA045pYAX1-pz-26" value="Azure Blob storage" style="rounded=0;whiteSpace=wrap;html=1;fillColor=#60a917;strokeColor=#2D7600;fontColor=#ffffff;" parent="1" vertex="1">
          <mxGeometry x="560" y="700" width="120" height="60" as="geometry" />
        </mxCell>
        <mxCell id="bXhQEqrOA045pYAX1-pz-27" value="Azure App Service" style="rounded=0;whiteSpace=wrap;html=1;fillColor=#60a917;strokeColor=#2D7600;fontColor=#ffffff;" parent="1" vertex="1">
          <mxGeometry x="410" y="700" width="120" height="60" as="geometry" />
        </mxCell>
        <mxCell id="bXhQEqrOA045pYAX1-pz-28" value="Azure&amp;nbsp; Redis" style="rounded=0;whiteSpace=wrap;html=1;fillColor=#60a917;strokeColor=#2D7600;fontColor=#ffffff;" parent="1" vertex="1">
          <mxGeometry x="710" y="700" width="120" height="60" as="geometry" />
        </mxCell>
        <mxCell id="bXhQEqrOA045pYAX1-pz-48" style="edgeStyle=orthogonalEdgeStyle;rounded=0;orthogonalLoop=1;jettySize=auto;html=1;exitX=0.5;exitY=1;exitDx=0;exitDy=0;strokeWidth=2;strokeColor=#3399FF;" parent="1" source="bXhQEqrOA045pYAX1-pz-29" target="bXhQEqrOA045pYAX1-pz-26" edge="1">
          <mxGeometry relative="1" as="geometry" />
        </mxCell>
        <mxCell id="bXhQEqrOA045pYAX1-pz-29" value="Jobs to copy PDFs to Blob storage" style="rounded=0;whiteSpace=wrap;html=1;fillColor=#FFD966;" parent="1" vertex="1">
          <mxGeometry x="560" y="542" width="120" height="60" as="geometry" />
        </mxCell>
        <mxCell id="bXhQEqrOA045pYAX1-pz-30" value="" style="image;aspect=fixed;html=1;points=[];align=center;fontSize=12;image=img/lib/azure2/general/Browser.svg;" parent="1" vertex="1">
          <mxGeometry x="165" y="324" width="65" height="52" as="geometry" />
        </mxCell>
        <mxCell id="bXhQEqrOA045pYAX1-pz-35" value="" style="sketch=0;pointerEvents=1;shadow=0;dashed=0;html=1;strokeColor=none;fillColor=#505050;labelPosition=center;verticalLabelPosition=bottom;verticalAlign=top;outlineConnect=0;align=center;shape=mxgraph.office.users.user;" parent="1" vertex="1">
          <mxGeometry x="90" y="330" width="46" height="50" as="geometry" />
        </mxCell>
        <mxCell id="bXhQEqrOA045pYAX1-pz-39" value="" style="endArrow=classic;startArrow=classic;html=1;rounded=0;entryX=0.5;entryY=1;entryDx=0;entryDy=0;exitX=0.5;exitY=0;exitDx=0;exitDy=0;strokeWidth=2;strokeColor=#3399FF;" parent="1" source="bXhQEqrOA045pYAX1-pz-17" target="bXhQEqrOA045pYAX1-pz-15" edge="1">
          <mxGeometry width="50" height="50" relative="1" as="geometry">
            <mxPoint x="250" y="470" as="sourcePoint" />
            <mxPoint x="300" y="420" as="targetPoint" />
          </mxGeometry>
        </mxCell>
        <mxCell id="bXhQEqrOA045pYAX1-pz-41" value="" style="endArrow=classic;startArrow=classic;html=1;rounded=0;entryX=0.5;entryY=1;entryDx=0;entryDy=0;exitX=1;exitY=0;exitDx=0;exitDy=0;strokeWidth=2;strokeColor=#3399FF;" parent="1" source="bXhQEqrOA045pYAX1-pz-17" target="bXhQEqrOA045pYAX1-pz-4" edge="1">
          <mxGeometry width="50" height="50" relative="1" as="geometry">
            <mxPoint x="380" y="520" as="sourcePoint" />
            <mxPoint x="430" y="470" as="targetPoint" />
          </mxGeometry>
        </mxCell>
        <mxCell id="bXhQEqrOA045pYAX1-pz-42" value="" style="endArrow=classic;startArrow=classic;html=1;rounded=0;entryX=0;entryY=0.5;entryDx=0;entryDy=0;entryPerimeter=0;exitX=1;exitY=0.5;exitDx=0;exitDy=0;strokeWidth=2;strokeColor=#3399FF;" parent="1" source="bXhQEqrOA045pYAX1-pz-17" target="bXhQEqrOA045pYAX1-pz-20" edge="1">
          <mxGeometry width="50" height="50" relative="1" as="geometry">
            <mxPoint x="430" y="580" as="sourcePoint" />
            <mxPoint x="480" y="530" as="targetPoint" />
          </mxGeometry>
        </mxCell>
        <mxCell id="bXhQEqrOA045pYAX1-pz-43" value="" style="endArrow=classic;startArrow=classic;html=1;rounded=0;entryX=0;entryY=0.5;entryDx=0;entryDy=0;exitX=1;exitY=0.5;exitDx=0;exitDy=0;strokeWidth=2;strokeColor=#3399FF;" parent="1" source="bXhQEqrOA045pYAX1-pz-16" target="bXhQEqrOA045pYAX1-pz-17" edge="1">
          <mxGeometry width="50" height="50" relative="1" as="geometry">
            <mxPoint x="180" y="580" as="sourcePoint" />
            <mxPoint x="230" y="530" as="targetPoint" />
          </mxGeometry>
        </mxCell>
        <mxCell id="bXhQEqrOA045pYAX1-pz-45" style="edgeStyle=orthogonalEdgeStyle;rounded=0;orthogonalLoop=1;jettySize=auto;html=1;exitX=0;exitY=0.5;exitDx=0;exitDy=0;entryX=1;entryY=0.5;entryDx=0;entryDy=0;entryPerimeter=0;strokeWidth=2;strokeColor=#3399FF;" parent="1" source="bXhQEqrOA045pYAX1-pz-21" target="bXhQEqrOA045pYAX1-pz-20" edge="1">
          <mxGeometry relative="1" as="geometry" />
        </mxCell>
        <mxCell id="bXhQEqrOA045pYAX1-pz-49" style="edgeStyle=orthogonalEdgeStyle;rounded=0;orthogonalLoop=1;jettySize=auto;html=1;exitX=0;exitY=0.5;exitDx=0;exitDy=0;entryX=1;entryY=0.5;entryDx=0;entryDy=0;strokeWidth=2;strokeColor=#3399FF;" parent="1" source="bXhQEqrOA045pYAX1-pz-46" target="bXhQEqrOA045pYAX1-pz-29" edge="1">
          <mxGeometry relative="1" as="geometry" />
        </mxCell>
        <mxCell id="bXhQEqrOA045pYAX1-pz-46" value="Statement PDFs" style="rounded=0;whiteSpace=wrap;html=1;fillColor=#FFD966;" parent="1" vertex="1">
          <mxGeometry x="720" y="542" width="100" height="60" as="geometry" />
        </mxCell>
        <mxCell id="bXhQEqrOA045pYAX1-pz-50" value="" style="endArrow=classic;startArrow=classic;html=1;rounded=0;entryX=0.046;entryY=0.577;entryDx=0;entryDy=0;entryPerimeter=0;strokeWidth=2;strokeColor=#3399FF;" parent="1" source="bXhQEqrOA045pYAX1-pz-35" target="bXhQEqrOA045pYAX1-pz-30" edge="1">
          <mxGeometry width="50" height="50" relative="1" as="geometry">
            <mxPoint x="110" y="310" as="sourcePoint" />
            <mxPoint x="160" y="260" as="targetPoint" />
          </mxGeometry>
        </mxCell>
        <mxCell id="bXhQEqrOA045pYAX1-pz-51" value="" style="endArrow=classic;startArrow=classic;html=1;rounded=0;entryX=0;entryY=0.5;entryDx=0;entryDy=0;exitX=0.954;exitY=0.519;exitDx=0;exitDy=0;exitPerimeter=0;strokeWidth=2;strokeColor=#3399FF;" parent="1" source="bXhQEqrOA045pYAX1-pz-30" target="bXhQEqrOA045pYAX1-pz-15" edge="1">
          <mxGeometry width="50" height="50" relative="1" as="geometry">
            <mxPoint x="180" y="380" as="sourcePoint" />
            <mxPoint x="230" y="330" as="targetPoint" />
          </mxGeometry>
        </mxCell>
        <mxCell id="bXhQEqrOA045pYAX1-pz-52" value="" style="image;aspect=fixed;html=1;points=[];align=center;fontSize=12;image=img/lib/azure2/general/Browser.svg;" parent="1" vertex="1">
          <mxGeometry x="-35" y="518" width="65" height="52" as="geometry" />
        </mxCell>
        <mxCell id="bXhQEqrOA045pYAX1-pz-53" value="" style="sketch=0;pointerEvents=1;shadow=0;dashed=0;html=1;strokeColor=none;fillColor=#505050;labelPosition=center;verticalLabelPosition=bottom;verticalAlign=top;outlineConnect=0;align=center;shape=mxgraph.office.users.user;" parent="1" vertex="1">
          <mxGeometry x="-110" y="524" width="46" height="50" as="geometry" />
        </mxCell>
        <mxCell id="bXhQEqrOA045pYAX1-pz-54" value="" style="endArrow=classic;startArrow=classic;html=1;rounded=0;entryX=0.046;entryY=0.577;entryDx=0;entryDy=0;entryPerimeter=0;strokeWidth=2;strokeColor=#3399FF;" parent="1" source="bXhQEqrOA045pYAX1-pz-53" target="bXhQEqrOA045pYAX1-pz-52" edge="1">
          <mxGeometry width="50" height="50" relative="1" as="geometry">
            <mxPoint x="-90" y="504" as="sourcePoint" />
            <mxPoint x="-40" y="454" as="targetPoint" />
          </mxGeometry>
        </mxCell>
        <mxCell id="bXhQEqrOA045pYAX1-pz-55" value="" style="endArrow=classic;startArrow=classic;html=1;rounded=0;entryX=0;entryY=0.5;entryDx=0;entryDy=0;exitX=0.954;exitY=0.519;exitDx=0;exitDy=0;exitPerimeter=0;strokeWidth=2;strokeColor=#3399FF;" parent="1" source="bXhQEqrOA045pYAX1-pz-52" target="bXhQEqrOA045pYAX1-pz-16" edge="1">
          <mxGeometry width="50" height="50" relative="1" as="geometry">
            <mxPoint x="-50" y="578" as="sourcePoint" />
            <mxPoint x="35" y="548" as="targetPoint" />
          </mxGeometry>
        </mxCell>
      </root>
    </mxGraphModel>
  </diagram>
</mxfile>
